<mxfile host="app.diagrams.net" modified="2023-12-14T04:06:22.125Z" agent="Mozilla/5.0 (Windows NT 10.0; Win64; x64) AppleWebKit/537.36 (KHTML, like Gecko) Chrome/120.0.0.0 Safari/537.36" etag="h_qMcEh4rW-iJ7dBsy17" version="22.1.8" type="device">
  <diagram name="Page-1" id="JKAD8A5zQkZkKTpz77G4">
    <mxGraphModel dx="1037" dy="2249" grid="1" gridSize="10" guides="1" tooltips="1" connect="1" arrows="1" fold="1" page="1" pageScale="1" pageWidth="850" pageHeight="1100" math="0" shadow="0">
      <root>
        <mxCell id="0" />
        <mxCell id="1" parent="0" />
        <mxCell id="9R4JeA-Fv7_AUIsri1cz-4" value="" style="rounded=0;whiteSpace=wrap;html=1;" vertex="1" parent="1">
          <mxGeometry x="260" y="-210" width="550" height="700" as="geometry" />
        </mxCell>
        <mxCell id="9R4JeA-Fv7_AUIsri1cz-22" style="rounded=0;orthogonalLoop=1;jettySize=auto;html=1;entryX=0;entryY=0.5;entryDx=0;entryDy=0;endArrow=none;endFill=0;exitX=1;exitY=0.3333333333333333;exitDx=0;exitDy=0;exitPerimeter=0;" edge="1" parent="1" source="9R4JeA-Fv7_AUIsri1cz-1" target="9R4JeA-Fv7_AUIsri1cz-11">
          <mxGeometry relative="1" as="geometry" />
        </mxCell>
        <mxCell id="9R4JeA-Fv7_AUIsri1cz-1" value="Player" style="shape=umlActor;verticalLabelPosition=bottom;verticalAlign=top;html=1;outlineConnect=0;" vertex="1" parent="1">
          <mxGeometry x="160" y="-90" width="40" height="80" as="geometry" />
        </mxCell>
        <mxCell id="9R4JeA-Fv7_AUIsri1cz-5" value="Log In" style="ellipse;whiteSpace=wrap;html=1;" vertex="1" parent="1">
          <mxGeometry x="410" y="-180" width="120" height="50" as="geometry" />
        </mxCell>
        <mxCell id="9R4JeA-Fv7_AUIsri1cz-6" value="Sign Up" style="ellipse;whiteSpace=wrap;html=1;" vertex="1" parent="1">
          <mxGeometry x="380" y="-110" width="120" height="50" as="geometry" />
        </mxCell>
        <mxCell id="9R4JeA-Fv7_AUIsri1cz-7" value="Log Out" style="ellipse;whiteSpace=wrap;html=1;" vertex="1" parent="1">
          <mxGeometry x="425" y="-50" width="120" height="50" as="geometry" />
        </mxCell>
        <mxCell id="9R4JeA-Fv7_AUIsri1cz-8" value="Select mode" style="ellipse;whiteSpace=wrap;html=1;" vertex="1" parent="1">
          <mxGeometry x="350" y="90" width="120" height="50" as="geometry" />
        </mxCell>
        <mxCell id="9R4JeA-Fv7_AUIsri1cz-9" value="Play Game" style="ellipse;whiteSpace=wrap;html=1;" vertex="1" parent="1">
          <mxGeometry x="350" y="250" width="120" height="50" as="geometry" />
        </mxCell>
        <mxCell id="9R4JeA-Fv7_AUIsri1cz-10" value="Manage Personal Information" style="ellipse;whiteSpace=wrap;html=1;" vertex="1" parent="1">
          <mxGeometry x="360" y="20" width="170" height="50" as="geometry" />
        </mxCell>
        <mxCell id="9R4JeA-Fv7_AUIsri1cz-11" value="Drive Verhicle" style="ellipse;whiteSpace=wrap;html=1;" vertex="1" parent="1">
          <mxGeometry x="350" y="330" width="120" height="50" as="geometry" />
        </mxCell>
        <mxCell id="9R4JeA-Fv7_AUIsri1cz-12" value="Select Difficulty Level" style="ellipse;whiteSpace=wrap;html=1;" vertex="1" parent="1">
          <mxGeometry x="540" y="50" width="120" height="50" as="geometry" />
        </mxCell>
        <mxCell id="9R4JeA-Fv7_AUIsri1cz-13" value="Select Verhicle" style="ellipse;whiteSpace=wrap;html=1;" vertex="1" parent="1">
          <mxGeometry x="350" y="170" width="120" height="50" as="geometry" />
        </mxCell>
        <mxCell id="9R4JeA-Fv7_AUIsri1cz-14" value="Turn Left" style="ellipse;whiteSpace=wrap;html=1;" vertex="1" parent="1">
          <mxGeometry x="620" y="250" width="120" height="50" as="geometry" />
        </mxCell>
        <mxCell id="9R4JeA-Fv7_AUIsri1cz-16" value="Turn Right" style="ellipse;whiteSpace=wrap;html=1;" vertex="1" parent="1">
          <mxGeometry x="620" y="330" width="120" height="50" as="geometry" />
        </mxCell>
        <mxCell id="9R4JeA-Fv7_AUIsri1cz-17" value="Accelerate" style="ellipse;whiteSpace=wrap;html=1;" vertex="1" parent="1">
          <mxGeometry x="620" y="410" width="120" height="50" as="geometry" />
        </mxCell>
        <mxCell id="9R4JeA-Fv7_AUIsri1cz-19" value="&amp;lt;&amp;lt;extend&amp;gt;&amp;gt;" style="html=1;verticalAlign=bottom;labelBackgroundColor=none;endArrow=open;endFill=0;dashed=1;rounded=0;exitX=1;exitY=0.5;exitDx=0;exitDy=0;entryX=0.026;entryY=0.727;entryDx=0;entryDy=0;entryPerimeter=0;" edge="1" parent="1" source="9R4JeA-Fv7_AUIsri1cz-11" target="9R4JeA-Fv7_AUIsri1cz-14">
          <mxGeometry width="160" relative="1" as="geometry">
            <mxPoint x="460" y="260" as="sourcePoint" />
            <mxPoint x="620" y="260" as="targetPoint" />
          </mxGeometry>
        </mxCell>
        <mxCell id="9R4JeA-Fv7_AUIsri1cz-20" value="&amp;lt;&amp;lt;extend&amp;gt;&amp;gt;" style="html=1;verticalAlign=bottom;labelBackgroundColor=none;endArrow=open;endFill=0;dashed=1;rounded=0;exitX=1;exitY=0.5;exitDx=0;exitDy=0;entryX=0;entryY=0.5;entryDx=0;entryDy=0;" edge="1" parent="1" source="9R4JeA-Fv7_AUIsri1cz-11" target="9R4JeA-Fv7_AUIsri1cz-16">
          <mxGeometry width="160" relative="1" as="geometry">
            <mxPoint x="480" y="365" as="sourcePoint" />
            <mxPoint x="533" y="306" as="targetPoint" />
          </mxGeometry>
        </mxCell>
        <mxCell id="9R4JeA-Fv7_AUIsri1cz-21" value="&amp;lt;&amp;lt;extend&amp;gt;&amp;gt;" style="html=1;verticalAlign=bottom;labelBackgroundColor=none;endArrow=open;endFill=0;dashed=1;rounded=0;exitX=1;exitY=0.5;exitDx=0;exitDy=0;entryX=0;entryY=0.5;entryDx=0;entryDy=0;" edge="1" parent="1" source="9R4JeA-Fv7_AUIsri1cz-11" target="9R4JeA-Fv7_AUIsri1cz-17">
          <mxGeometry width="160" relative="1" as="geometry">
            <mxPoint x="480" y="365" as="sourcePoint" />
            <mxPoint x="630" y="365" as="targetPoint" />
          </mxGeometry>
        </mxCell>
        <mxCell id="9R4JeA-Fv7_AUIsri1cz-24" style="rounded=0;orthogonalLoop=1;jettySize=auto;html=1;entryX=0;entryY=0.5;entryDx=0;entryDy=0;endArrow=none;endFill=0;exitX=1;exitY=0.3333333333333333;exitDx=0;exitDy=0;exitPerimeter=0;" edge="1" parent="1" source="9R4JeA-Fv7_AUIsri1cz-1" target="9R4JeA-Fv7_AUIsri1cz-5">
          <mxGeometry relative="1" as="geometry">
            <mxPoint x="170" y="152" as="sourcePoint" />
            <mxPoint x="360" y="365" as="targetPoint" />
          </mxGeometry>
        </mxCell>
        <mxCell id="9R4JeA-Fv7_AUIsri1cz-25" style="rounded=0;orthogonalLoop=1;jettySize=auto;html=1;endArrow=none;endFill=0;exitX=1;exitY=0.3333333333333333;exitDx=0;exitDy=0;exitPerimeter=0;entryX=0;entryY=0.5;entryDx=0;entryDy=0;" edge="1" parent="1" source="9R4JeA-Fv7_AUIsri1cz-1" target="9R4JeA-Fv7_AUIsri1cz-6">
          <mxGeometry relative="1" as="geometry">
            <mxPoint x="170" y="117" as="sourcePoint" />
            <mxPoint x="360" y="365" as="targetPoint" />
          </mxGeometry>
        </mxCell>
        <mxCell id="9R4JeA-Fv7_AUIsri1cz-26" style="rounded=0;orthogonalLoop=1;jettySize=auto;html=1;entryX=0;entryY=0.5;entryDx=0;entryDy=0;endArrow=none;endFill=0;exitX=1;exitY=0.3333333333333333;exitDx=0;exitDy=0;exitPerimeter=0;" edge="1" parent="1" source="9R4JeA-Fv7_AUIsri1cz-1" target="9R4JeA-Fv7_AUIsri1cz-7">
          <mxGeometry relative="1" as="geometry">
            <mxPoint x="180" y="127" as="sourcePoint" />
            <mxPoint x="370" y="375" as="targetPoint" />
          </mxGeometry>
        </mxCell>
        <mxCell id="9R4JeA-Fv7_AUIsri1cz-27" style="rounded=0;orthogonalLoop=1;jettySize=auto;html=1;entryX=0;entryY=0.5;entryDx=0;entryDy=0;endArrow=none;endFill=0;exitX=1;exitY=0.3333333333333333;exitDx=0;exitDy=0;exitPerimeter=0;" edge="1" parent="1" source="9R4JeA-Fv7_AUIsri1cz-1" target="9R4JeA-Fv7_AUIsri1cz-8">
          <mxGeometry relative="1" as="geometry">
            <mxPoint x="170" y="117" as="sourcePoint" />
            <mxPoint x="450" y="-45" as="targetPoint" />
          </mxGeometry>
        </mxCell>
        <mxCell id="9R4JeA-Fv7_AUIsri1cz-28" style="rounded=0;orthogonalLoop=1;jettySize=auto;html=1;entryX=0;entryY=0.5;entryDx=0;entryDy=0;endArrow=none;endFill=0;exitX=1;exitY=0.3333333333333333;exitDx=0;exitDy=0;exitPerimeter=0;" edge="1" parent="1" source="9R4JeA-Fv7_AUIsri1cz-1" target="9R4JeA-Fv7_AUIsri1cz-9">
          <mxGeometry relative="1" as="geometry">
            <mxPoint x="160" y="100" as="sourcePoint" />
            <mxPoint x="360" y="365" as="targetPoint" />
          </mxGeometry>
        </mxCell>
        <mxCell id="9R4JeA-Fv7_AUIsri1cz-29" style="rounded=0;orthogonalLoop=1;jettySize=auto;html=1;entryX=0;entryY=0.5;entryDx=0;entryDy=0;endArrow=none;endFill=0;exitX=1;exitY=0.3333333333333333;exitDx=0;exitDy=0;exitPerimeter=0;" edge="1" parent="1" source="9R4JeA-Fv7_AUIsri1cz-1" target="9R4JeA-Fv7_AUIsri1cz-13">
          <mxGeometry relative="1" as="geometry">
            <mxPoint x="170" y="117" as="sourcePoint" />
            <mxPoint x="360" y="275" as="targetPoint" />
          </mxGeometry>
        </mxCell>
        <mxCell id="9R4JeA-Fv7_AUIsri1cz-30" value="Select Map" style="ellipse;whiteSpace=wrap;html=1;" vertex="1" parent="1">
          <mxGeometry x="540" y="120" width="120" height="50" as="geometry" />
        </mxCell>
        <mxCell id="9R4JeA-Fv7_AUIsri1cz-31" value="&amp;lt;&amp;lt;extend&amp;gt;&amp;gt;" style="html=1;verticalAlign=bottom;labelBackgroundColor=none;endArrow=open;endFill=0;dashed=1;rounded=0;exitX=1;exitY=0.5;exitDx=0;exitDy=0;entryX=0;entryY=0.5;entryDx=0;entryDy=0;" edge="1" parent="1" source="9R4JeA-Fv7_AUIsri1cz-8" target="9R4JeA-Fv7_AUIsri1cz-12">
          <mxGeometry width="160" relative="1" as="geometry">
            <mxPoint x="480" y="365" as="sourcePoint" />
            <mxPoint x="633" y="296" as="targetPoint" />
          </mxGeometry>
        </mxCell>
        <mxCell id="9R4JeA-Fv7_AUIsri1cz-32" value="&amp;lt;&amp;lt;extend&amp;gt;&amp;gt;" style="html=1;verticalAlign=bottom;labelBackgroundColor=none;endArrow=open;endFill=0;dashed=1;rounded=0;exitX=1;exitY=0.5;exitDx=0;exitDy=0;entryX=0;entryY=0.5;entryDx=0;entryDy=0;" edge="1" parent="1" source="9R4JeA-Fv7_AUIsri1cz-8" target="9R4JeA-Fv7_AUIsri1cz-30">
          <mxGeometry width="160" relative="1" as="geometry">
            <mxPoint x="480" y="125" as="sourcePoint" />
            <mxPoint x="550" y="85" as="targetPoint" />
          </mxGeometry>
        </mxCell>
        <mxCell id="9R4JeA-Fv7_AUIsri1cz-33" style="rounded=0;orthogonalLoop=1;jettySize=auto;html=1;entryX=0;entryY=0.5;entryDx=0;entryDy=0;endArrow=none;endFill=0;exitX=1;exitY=0.3333333333333333;exitDx=0;exitDy=0;exitPerimeter=0;" edge="1" parent="1" source="9R4JeA-Fv7_AUIsri1cz-1" target="9R4JeA-Fv7_AUIsri1cz-10">
          <mxGeometry relative="1" as="geometry">
            <mxPoint x="210" y="112" as="sourcePoint" />
            <mxPoint x="450" y="-45" as="targetPoint" />
          </mxGeometry>
        </mxCell>
        <mxCell id="9R4JeA-Fv7_AUIsri1cz-34" value="Admin&lt;br&gt;" style="shape=umlActor;verticalLabelPosition=bottom;verticalAlign=top;html=1;outlineConnect=0;" vertex="1" parent="1">
          <mxGeometry x="870" y="75" width="40" height="80" as="geometry" />
        </mxCell>
        <mxCell id="9R4JeA-Fv7_AUIsri1cz-37" style="rounded=0;orthogonalLoop=1;jettySize=auto;html=1;endArrow=none;endFill=0;exitX=1;exitY=0.5;exitDx=0;exitDy=0;entryX=0;entryY=0.3333333333333333;entryDx=0;entryDy=0;entryPerimeter=0;" edge="1" parent="1" source="9R4JeA-Fv7_AUIsri1cz-5" target="9R4JeA-Fv7_AUIsri1cz-34">
          <mxGeometry relative="1" as="geometry">
            <mxPoint x="210" y="112" as="sourcePoint" />
            <mxPoint x="480" y="-115" as="targetPoint" />
          </mxGeometry>
        </mxCell>
        <mxCell id="9R4JeA-Fv7_AUIsri1cz-38" style="rounded=0;orthogonalLoop=1;jettySize=auto;html=1;endArrow=none;endFill=0;exitX=1;exitY=0.5;exitDx=0;exitDy=0;entryX=0;entryY=0.3333333333333333;entryDx=0;entryDy=0;entryPerimeter=0;" edge="1" parent="1" source="9R4JeA-Fv7_AUIsri1cz-6" target="9R4JeA-Fv7_AUIsri1cz-34">
          <mxGeometry relative="1" as="geometry">
            <mxPoint x="600" y="-155" as="sourcePoint" />
            <mxPoint x="890" y="112" as="targetPoint" />
          </mxGeometry>
        </mxCell>
        <mxCell id="9R4JeA-Fv7_AUIsri1cz-39" style="rounded=0;orthogonalLoop=1;jettySize=auto;html=1;endArrow=none;endFill=0;exitX=1;exitY=0.5;exitDx=0;exitDy=0;entryX=0;entryY=0.3333333333333333;entryDx=0;entryDy=0;entryPerimeter=0;" edge="1" parent="1" source="9R4JeA-Fv7_AUIsri1cz-7" target="9R4JeA-Fv7_AUIsri1cz-34">
          <mxGeometry relative="1" as="geometry">
            <mxPoint x="600" y="-85" as="sourcePoint" />
            <mxPoint x="890" y="112" as="targetPoint" />
          </mxGeometry>
        </mxCell>
        <mxCell id="9R4JeA-Fv7_AUIsri1cz-42" value="Manage Player Accounts" style="ellipse;whiteSpace=wrap;html=1;" vertex="1" parent="1">
          <mxGeometry x="555" y="-180" width="185" height="50" as="geometry" />
        </mxCell>
        <mxCell id="9R4JeA-Fv7_AUIsri1cz-43" style="rounded=0;orthogonalLoop=1;jettySize=auto;html=1;endArrow=none;endFill=0;exitX=1;exitY=0.5;exitDx=0;exitDy=0;entryX=0;entryY=0.3333333333333333;entryDx=0;entryDy=0;entryPerimeter=0;" edge="1" parent="1" source="9R4JeA-Fv7_AUIsri1cz-42" target="9R4JeA-Fv7_AUIsri1cz-34">
          <mxGeometry relative="1" as="geometry">
            <mxPoint x="485" y="-145" as="sourcePoint" />
            <mxPoint x="890" y="112" as="targetPoint" />
          </mxGeometry>
        </mxCell>
        <mxCell id="9R4JeA-Fv7_AUIsri1cz-45" value="System" style="text;html=1;strokeColor=none;fillColor=none;align=center;verticalAlign=middle;whiteSpace=wrap;rounded=0;" vertex="1" parent="1">
          <mxGeometry x="750" y="-210" width="60" height="30" as="geometry" />
        </mxCell>
        <mxCell id="9R4JeA-Fv7_AUIsri1cz-47" value="AI Opponent" style="shape=umlActor;verticalLabelPosition=bottom;verticalAlign=top;html=1;outlineConnect=0;" vertex="1" parent="1">
          <mxGeometry x="160" y="230" width="40" height="80" as="geometry" />
        </mxCell>
        <mxCell id="9R4JeA-Fv7_AUIsri1cz-48" style="rounded=0;orthogonalLoop=1;jettySize=auto;html=1;entryX=0;entryY=0.5;entryDx=0;entryDy=0;endArrow=none;endFill=0;exitX=1;exitY=0.3333333333333333;exitDx=0;exitDy=0;exitPerimeter=0;" edge="1" parent="1" source="9R4JeA-Fv7_AUIsri1cz-47" target="9R4JeA-Fv7_AUIsri1cz-11">
          <mxGeometry relative="1" as="geometry">
            <mxPoint x="210" y="-53" as="sourcePoint" />
            <mxPoint x="360" y="365" as="targetPoint" />
          </mxGeometry>
        </mxCell>
      </root>
    </mxGraphModel>
  </diagram>
</mxfile>
